<svg width="34" height="34" viewBox="0 0 34 34" fill="none" xmlns="http://www.w3.org/2000/svg">
<path d="M17 0C7.61214 0 0 7.61098 0 17C0 26.389 7.61139 34 17 34C26.3894 34 34 26.389 34 17C34 7.61098 26.3894 0 17 0ZM17 5.0832C20.1064 5.0832 22.6236 7.60127 22.6236 10.7063C22.6236 13.8121 20.1064 16.3294 17 16.3294C13.8951 16.3294 11.3779 13.8121 11.3779 10.7063C11.3779 7.60127 13.8951 5.0832 17 5.0832ZM16.9963 29.5553C13.8981 29.5553 11.0605 28.4269 8.87187 26.5593C8.33871 26.1045 8.03105 25.4376 8.03105 24.7379C8.03105 21.5888 10.5796 19.0685 13.7293 19.0685H20.2722C23.4226 19.0685 25.9615 21.5888 25.9615 24.7379C25.9615 25.4384 25.6553 26.1038 25.1214 26.5585C22.9335 28.4269 20.0952 29.5553 16.9963 29.5553Z" fill="white"/>
</svg>
